<svg width="160" height="36" viewBox="0 0 160 36" fill="none" xmlns="http://www.w3.org/2000/svg">
<g filter="url(#filter0_d_27_11)">
<rect x="4" width="152" height="28" rx="14" fill="#FCF0F0"/>
</g>
<path d="M95.0568 19V10.2727H100.29V11.2102H96.1136V14.1591H99.8977V15.0966H96.1136V19H95.0568ZM101.963 19V12.4545H102.969V19H101.963ZM102.475 11.3636C102.279 11.3636 102.11 11.2969 101.968 11.1634C101.828 11.0298 101.759 10.8693 101.759 10.6818C101.759 10.4943 101.828 10.3338 101.968 10.2003C102.11 10.0668 102.279 10 102.475 10C102.671 10 102.838 10.0668 102.978 10.2003C103.12 10.3338 103.191 10.4943 103.191 10.6818C103.191 10.8693 103.12 11.0298 102.978 11.1634C102.838 11.2969 102.671 11.3636 102.475 11.3636ZM104.811 19V12.4545H105.783V13.4432H105.851C105.97 13.1193 106.186 12.8565 106.499 12.6548C106.811 12.4531 107.163 12.3523 107.555 12.3523C107.629 12.3523 107.722 12.3537 107.832 12.3565C107.943 12.3594 108.027 12.3636 108.084 12.3693V13.392C108.05 13.3835 107.972 13.3707 107.849 13.3537C107.73 13.3338 107.604 13.3239 107.47 13.3239C107.152 13.3239 106.868 13.3906 106.618 13.5241C106.371 13.6548 106.175 13.8366 106.03 14.0696C105.888 14.2997 105.817 14.5625 105.817 14.858V19H104.811ZM111.821 19.1364C111.19 19.1364 110.646 18.9972 110.189 18.7188C109.734 18.4375 109.384 18.0455 109.136 17.5426C108.892 17.0369 108.77 16.4489 108.77 15.7784C108.77 15.108 108.892 14.517 109.136 14.0057C109.384 13.4915 109.727 13.0909 110.168 12.804C110.611 12.5142 111.128 12.3693 111.719 12.3693C112.06 12.3693 112.396 12.4261 112.729 12.5398C113.061 12.6534 113.364 12.8381 113.636 13.0938C113.909 13.3466 114.126 13.6818 114.288 14.0994C114.45 14.517 114.531 15.0312 114.531 15.642V16.0682H109.486V15.1989H113.509C113.509 14.8295 113.435 14.5 113.287 14.2102C113.142 13.9205 112.935 13.6918 112.665 13.5241C112.398 13.3565 112.082 13.2727 111.719 13.2727C111.318 13.2727 110.972 13.3722 110.679 13.571C110.389 13.767 110.166 14.0227 110.01 14.3381C109.854 14.6534 109.776 14.9915 109.776 15.3523V15.9318C109.776 16.4261 109.861 16.8452 110.031 17.1889C110.205 17.5298 110.445 17.7898 110.751 17.9688C111.058 18.1449 111.415 18.233 111.821 18.233C112.085 18.233 112.324 18.196 112.537 18.1222C112.753 18.0455 112.939 17.9318 113.095 17.7812C113.251 17.6278 113.372 17.4375 113.457 17.2102L114.429 17.483C114.327 17.8125 114.155 18.1023 113.913 18.3523C113.672 18.5994 113.374 18.7926 113.018 18.9318C112.663 19.0682 112.264 19.1364 111.821 19.1364ZM116.197 19V10.2727H117.203V13.4943H117.288C117.362 13.3807 117.464 13.2358 117.595 13.0597C117.729 12.8807 117.919 12.7216 118.166 12.5824C118.416 12.4403 118.754 12.3693 119.18 12.3693C119.732 12.3693 120.217 12.5071 120.638 12.7827C121.058 13.0582 121.386 13.4489 121.622 13.9545C121.858 14.4602 121.976 15.0568 121.976 15.7443C121.976 16.4375 121.858 17.0384 121.622 17.5469C121.386 18.0526 121.06 18.4446 120.642 18.723C120.224 18.9986 119.743 19.1364 119.197 19.1364C118.777 19.1364 118.44 19.0668 118.188 18.9276C117.935 18.7855 117.74 18.625 117.604 18.446C117.467 18.2642 117.362 18.1136 117.288 17.9943H117.169V19H116.197ZM117.186 15.7273C117.186 16.2216 117.259 16.6577 117.403 17.0355C117.548 17.4105 117.76 17.7045 118.038 17.9176C118.317 18.1278 118.658 18.233 119.061 18.233C119.482 18.233 119.832 18.1222 120.114 17.9006C120.398 17.6761 120.611 17.375 120.753 16.9972C120.898 16.6165 120.97 16.1932 120.97 15.7273C120.97 15.267 120.899 14.8523 120.757 14.483C120.618 14.1108 120.406 13.8168 120.122 13.6009C119.841 13.3821 119.487 13.2727 119.061 13.2727C118.652 13.2727 118.308 13.3764 118.03 13.5838C117.751 13.7884 117.541 14.0753 117.399 14.4446C117.257 14.8111 117.186 15.2386 117.186 15.7273ZM125.44 19.1534C125.026 19.1534 124.649 19.0753 124.311 18.919C123.973 18.7599 123.705 18.5312 123.506 18.233C123.307 17.9318 123.207 17.5682 123.207 17.142C123.207 16.767 123.281 16.4631 123.429 16.2301C123.577 15.9943 123.774 15.8097 124.021 15.6761C124.268 15.5426 124.541 15.4432 124.839 15.3778C125.141 15.3097 125.443 15.2557 125.747 15.2159C126.145 15.1648 126.467 15.1264 126.714 15.1009C126.964 15.0724 127.146 15.0256 127.26 14.9602C127.376 14.8949 127.435 14.7812 127.435 14.6193V14.5852C127.435 14.1648 127.32 13.8381 127.089 13.6051C126.862 13.3722 126.517 13.2557 126.054 13.2557C125.574 13.2557 125.197 13.3608 124.925 13.571C124.652 13.7812 124.46 14.0057 124.349 14.2443L123.395 13.9034C123.565 13.5057 123.793 13.196 124.077 12.9744C124.364 12.75 124.676 12.5937 125.014 12.5057C125.355 12.4148 125.69 12.3693 126.02 12.3693C126.23 12.3693 126.472 12.3949 126.744 12.446C127.02 12.4943 127.286 12.5952 127.541 12.7486C127.8 12.902 128.014 13.1335 128.185 13.4432C128.355 13.7528 128.44 14.1676 128.44 14.6875V19H127.435V18.1136H127.384C127.315 18.2557 127.202 18.4077 127.043 18.5696C126.884 18.7315 126.672 18.8693 126.408 18.983C126.143 19.0966 125.821 19.1534 125.44 19.1534ZM125.594 18.25C125.991 18.25 126.327 18.1719 126.599 18.0156C126.875 17.8594 127.082 17.6577 127.222 17.4105C127.364 17.1634 127.435 16.9034 127.435 16.6307V15.7102C127.392 15.7614 127.298 15.8082 127.153 15.8509C127.011 15.8906 126.847 15.9261 126.659 15.9574C126.474 15.9858 126.294 16.0114 126.118 16.0341C125.945 16.054 125.804 16.071 125.696 16.0852C125.435 16.1193 125.19 16.1747 124.963 16.2514C124.739 16.3253 124.557 16.4375 124.418 16.5881C124.281 16.7358 124.213 16.9375 124.213 17.1932C124.213 17.5426 124.342 17.8068 124.601 17.9858C124.862 18.1619 125.193 18.25 125.594 18.25ZM134.912 13.9205L134.009 14.1761C133.952 14.0256 133.868 13.8793 133.757 13.7372C133.65 13.5923 133.502 13.473 133.314 13.3793C133.127 13.2855 132.887 13.2386 132.594 13.2386C132.194 13.2386 131.86 13.331 131.593 13.5156C131.328 13.6974 131.196 13.929 131.196 14.2102C131.196 14.4602 131.287 14.6577 131.469 14.8026C131.651 14.9474 131.935 15.0682 132.321 15.1648L133.293 15.4034C133.878 15.5455 134.314 15.7628 134.601 16.0554C134.888 16.3452 135.032 16.7187 135.032 17.1761C135.032 17.5511 134.924 17.8864 134.708 18.1818C134.495 18.4773 134.196 18.7102 133.813 18.8807C133.429 19.0511 132.983 19.1364 132.475 19.1364C131.807 19.1364 131.255 18.9915 130.817 18.7017C130.38 18.4119 130.103 17.9886 129.986 17.4318L130.941 17.1932C131.032 17.5455 131.203 17.8097 131.456 17.9858C131.712 18.1619 132.046 18.25 132.458 18.25C132.926 18.25 133.299 18.1506 133.574 17.9517C133.853 17.75 133.992 17.5085 133.992 17.2273C133.992 17 133.912 16.8097 133.753 16.6562C133.594 16.5 133.35 16.3835 133.02 16.3068L131.929 16.0511C131.33 15.9091 130.89 15.6889 130.608 15.3906C130.33 15.0895 130.191 14.7131 130.191 14.2614C130.191 13.892 130.294 13.5653 130.502 13.2812C130.712 12.9972 130.998 12.7741 131.358 12.6122C131.722 12.4503 132.134 12.3693 132.594 12.3693C133.242 12.3693 133.75 12.5114 134.12 12.7955C134.492 13.0795 134.756 13.4545 134.912 13.9205ZM139.29 19.1364C138.659 19.1364 138.115 18.9972 137.658 18.7188C137.203 18.4375 136.852 18.0455 136.605 17.5426C136.361 17.0369 136.239 16.4489 136.239 15.7784C136.239 15.108 136.361 14.517 136.605 14.0057C136.852 13.4915 137.196 13.0909 137.636 12.804C138.08 12.5142 138.597 12.3693 139.188 12.3693C139.528 12.3693 139.865 12.4261 140.197 12.5398C140.53 12.6534 140.832 12.8381 141.105 13.0938C141.378 13.3466 141.595 13.6818 141.757 14.0994C141.919 14.517 142 15.0312 142 15.642V16.0682H136.955V15.1989H140.977C140.977 14.8295 140.903 14.5 140.756 14.2102C140.611 13.9205 140.403 13.6918 140.134 13.5241C139.866 13.3565 139.551 13.2727 139.188 13.2727C138.787 13.2727 138.44 13.3722 138.148 13.571C137.858 13.767 137.635 14.0227 137.479 14.3381C137.322 14.6534 137.244 14.9915 137.244 15.3523V15.9318C137.244 16.4261 137.33 16.8452 137.5 17.1889C137.673 17.5298 137.913 17.7898 138.22 17.9688C138.527 18.1449 138.884 18.233 139.29 18.233C139.554 18.233 139.793 18.196 140.006 18.1222C140.222 18.0455 140.408 17.9318 140.564 17.7812C140.72 17.6278 140.841 17.4375 140.926 17.2102L141.898 17.483C141.795 17.8125 141.624 18.1023 141.382 18.3523C141.141 18.5994 140.842 18.7926 140.487 18.9318C140.132 19.0682 139.733 19.1364 139.29 19.1364Z" fill="black"/>
<path d="M4 14C4 6.26801 10.268 0 18 0H64V28H18C10.268 28 4 21.732 4 14V14Z" fill="#A8B3DB"/>
<path d="M32.75 19H30.0568V10.2727H32.8693C33.7159 10.2727 34.4403 10.4474 35.0426 10.7969C35.6449 11.1435 36.1065 11.642 36.4276 12.2926C36.7486 12.9403 36.9091 13.7159 36.9091 14.6193C36.9091 15.5284 36.7472 16.3111 36.4233 16.9673C36.0994 17.6207 35.6278 18.1236 35.0085 18.4759C34.3892 18.8253 33.6364 19 32.75 19ZM31.1136 18.0625H32.6818C33.4034 18.0625 34.0014 17.9233 34.4759 17.6449C34.9503 17.3665 35.304 16.9702 35.5369 16.456C35.7699 15.9418 35.8864 15.3295 35.8864 14.6193C35.8864 13.9148 35.7713 13.3082 35.5412 12.7997C35.3111 12.2884 34.9673 11.8963 34.5099 11.6236C34.0526 11.348 33.483 11.2102 32.8011 11.2102H31.1136V18.0625ZM38.6818 19V10.2727H41.733C42.3409 10.2727 42.8423 10.3778 43.2372 10.5881C43.6321 10.7955 43.9261 11.0753 44.1193 11.4276C44.3125 11.777 44.4091 12.1648 44.4091 12.5909C44.4091 12.9659 44.3423 13.2756 44.2088 13.5199C44.0781 13.7642 43.9048 13.9574 43.6889 14.0994C43.4759 14.2415 43.2443 14.3466 42.9943 14.4148V14.5C43.2614 14.517 43.5298 14.6108 43.7997 14.7812C44.0696 14.9517 44.2955 15.196 44.4773 15.5142C44.6591 15.8324 44.75 16.2216 44.75 16.6818C44.75 17.1193 44.6506 17.5128 44.4517 17.8622C44.2528 18.2116 43.9389 18.4886 43.5099 18.6932C43.081 18.8977 42.5227 19 41.8352 19H38.6818ZM39.7386 18.0625H41.8352C42.5256 18.0625 43.0156 17.929 43.3054 17.6619C43.598 17.392 43.7443 17.0653 43.7443 16.6818C43.7443 16.3864 43.669 16.1136 43.5185 15.8636C43.3679 15.6108 43.1534 15.4091 42.875 15.2585C42.5966 15.1051 42.267 15.0284 41.8864 15.0284H39.7386V18.0625ZM39.7386 14.108H41.6989C42.017 14.108 42.304 14.0455 42.5597 13.9205C42.8182 13.7955 43.0227 13.6193 43.1733 13.392C43.3267 13.1648 43.4034 12.8977 43.4034 12.5909C43.4034 12.2074 43.2699 11.8821 43.0028 11.6151C42.7358 11.3452 42.3125 11.2102 41.733 11.2102H39.7386V14.108Z" fill="black"/>
<path d="M72.4305 16.7542L74.2042 5.34607C74.217 5.26144 74.2561 5.18299 74.316 5.12189C74.3759 5.06079 74.4536 5.02016 74.5379 5.00578C74.6223 4.9914 74.709 5.00401 74.7858 5.04182C74.8626 5.07962 74.9254 5.14069 74.9655 5.21632L76.8727 8.79454L72.4305 16.7542ZM85.0259 19.5232L83.3384 9.02328C83.3268 8.94908 83.2949 8.87956 83.2461 8.82248C83.1973 8.7654 83.1335 8.72302 83.062 8.70006C82.9905 8.67711 82.914 8.67449 82.8411 8.6925C82.7682 8.71051 82.7018 8.74843 82.6492 8.80204L72 19.5239L77.892 22.8442C78.0738 22.9463 78.2789 23 78.4874 23C78.696 23 78.9011 22.9463 79.0829 22.8442L85.0259 19.5232ZM80.2379 10.3605L78.8729 7.74905C78.8385 7.68337 78.7868 7.62837 78.7233 7.59C78.6598 7.55162 78.5871 7.53134 78.5129 7.53134C78.4388 7.53134 78.366 7.55162 78.3026 7.59C78.2391 7.62837 78.1874 7.68337 78.1529 7.74905L72.1605 18.4882L80.2379 10.3605Z" fill="#F9C94E"/>
<defs>
<filter id="filter0_d_27_11" x="0" y="0" width="160" height="36" filterUnits="userSpaceOnUse" color-interpolation-filters="sRGB">
<feFlood flood-opacity="0" result="BackgroundImageFix"/>
<feColorMatrix in="SourceAlpha" type="matrix" values="0 0 0 0 0 0 0 0 0 0 0 0 0 0 0 0 0 0 127 0" result="hardAlpha"/>
<feOffset dy="4"/>
<feGaussianBlur stdDeviation="2"/>
<feComposite in2="hardAlpha" operator="out"/>
<feColorMatrix type="matrix" values="0 0 0 0 0 0 0 0 0 0 0 0 0 0 0 0 0 0 0.25 0"/>
<feBlend mode="normal" in2="BackgroundImageFix" result="effect1_dropShadow_27_11"/>
<feBlend mode="normal" in="SourceGraphic" in2="effect1_dropShadow_27_11" result="shape"/>
</filter>
</defs>
</svg>
