<svg width="153" height="36" viewBox="0 0 153 36" fill="none" xmlns="http://www.w3.org/2000/svg">
<g filter="url(#filter0_d_27_2)">
<rect x="4" width="145" height="28" rx="14" fill="#FCF0F0"/>
</g>
<path d="M95.0568 19V10.2727H96.1136V14.6023H96.2159L100.136 10.2727H101.517L97.8523 14.2102L101.517 19H100.239L97.2045 14.9432L96.1136 16.1705V19H95.0568ZM104.927 19.1364C104.336 19.1364 103.818 18.9957 103.372 18.7145C102.929 18.4332 102.582 18.0398 102.332 17.5341C102.085 17.0284 101.961 16.4375 101.961 15.7614C101.961 15.0795 102.085 14.4844 102.332 13.9759C102.582 13.4673 102.929 13.0724 103.372 12.7912C103.818 12.5099 104.336 12.3693 104.927 12.3693C105.518 12.3693 106.035 12.5099 106.478 12.7912C106.924 13.0724 107.271 13.4673 107.518 13.9759C107.768 14.4844 107.893 15.0795 107.893 15.7614C107.893 16.4375 107.768 17.0284 107.518 17.5341C107.271 18.0398 106.924 18.4332 106.478 18.7145C106.035 18.9957 105.518 19.1364 104.927 19.1364ZM104.927 18.233C105.376 18.233 105.745 18.1179 106.035 17.8878C106.325 17.6577 106.539 17.3551 106.679 16.9801C106.818 16.6051 106.887 16.1989 106.887 15.7614C106.887 15.3239 106.818 14.9162 106.679 14.5384C106.539 14.1605 106.325 13.8551 106.035 13.6222C105.745 13.3892 105.376 13.2727 104.927 13.2727C104.478 13.2727 104.109 13.3892 103.819 13.6222C103.529 13.8551 103.315 14.1605 103.176 14.5384C103.037 14.9162 102.967 15.3239 102.967 15.7614C102.967 16.1989 103.037 16.6051 103.176 16.9801C103.315 17.3551 103.529 17.6577 103.819 17.8878C104.109 18.1179 104.478 18.233 104.927 18.233ZM112.275 12.4545V13.3068H108.883V12.4545H112.275ZM109.871 10.8864H110.877V17.125C110.877 17.4091 110.918 17.6222 111.001 17.7642C111.086 17.9034 111.194 17.9972 111.325 18.0455C111.458 18.0909 111.599 18.1136 111.746 18.1136C111.857 18.1136 111.948 18.108 112.019 18.0966C112.09 18.0824 112.147 18.071 112.19 18.0625L112.394 18.9659C112.326 18.9915 112.231 19.017 112.109 19.0426C111.987 19.071 111.832 19.0852 111.644 19.0852C111.36 19.0852 111.082 19.0241 110.809 18.902C110.539 18.7798 110.315 18.5938 110.136 18.3438C109.96 18.0938 109.871 17.7784 109.871 17.3977V10.8864ZM114.934 10.2727V19H113.928V10.2727H114.934ZM116.776 19V12.4545H117.782V19H116.776ZM117.287 11.3636C117.091 11.3636 116.922 11.2969 116.78 11.1634C116.641 11.0298 116.571 10.8693 116.571 10.6818C116.571 10.4943 116.641 10.3338 116.78 10.2003C116.922 10.0668 117.091 10 117.287 10C117.483 10 117.651 10.0668 117.79 10.2003C117.932 10.3338 118.003 10.4943 118.003 10.6818C118.003 10.8693 117.932 11.0298 117.79 11.1634C117.651 11.2969 117.483 11.3636 117.287 11.3636ZM120.629 15.0625V19H119.624V12.4545H120.595V13.4773H120.68C120.834 13.1449 121.067 12.8778 121.379 12.6761C121.692 12.4716 122.095 12.3693 122.589 12.3693C123.033 12.3693 123.42 12.4602 123.753 12.642C124.085 12.821 124.344 13.0938 124.528 13.4602C124.713 13.8239 124.805 14.2841 124.805 14.8409V19H123.8V14.9091C123.8 14.3949 123.666 13.9943 123.399 13.7074C123.132 13.4176 122.766 13.2727 122.3 13.2727C121.979 13.2727 121.692 13.3423 121.439 13.4815C121.189 13.6207 120.991 13.8239 120.847 14.0909C120.702 14.358 120.629 14.6818 120.629 15.0625Z" fill="black"/>
<path d="M4 14C4 6.26801 10.268 0 18 0H64V28H18C10.268 28 4 21.732 4 14Z" fill="#A8DBD2"/>
<path d="M21.0568 19V10.2727H22.1136V18.0625H26.1705V19H21.0568ZM29.5966 19.1534C29.1818 19.1534 28.8054 19.0753 28.4673 18.919C28.1293 18.7599 27.8608 18.5312 27.6619 18.233C27.4631 17.9318 27.3636 17.5682 27.3636 17.142C27.3636 16.767 27.4375 16.4631 27.5852 16.2301C27.733 15.9943 27.9304 15.8097 28.1776 15.6761C28.4247 15.5426 28.6974 15.4432 28.9957 15.3778C29.2969 15.3097 29.5994 15.2557 29.9034 15.2159C30.3011 15.1648 30.6236 15.1264 30.8707 15.1009C31.1207 15.0724 31.3026 15.0256 31.4162 14.9602C31.5327 14.8949 31.5909 14.7812 31.5909 14.6193V14.5852C31.5909 14.1648 31.4759 13.8381 31.2457 13.6051C31.0185 13.3722 30.6733 13.2557 30.2102 13.2557C29.7301 13.2557 29.3537 13.3608 29.081 13.571C28.8082 13.7812 28.6165 14.0057 28.5057 14.2443L27.5511 13.9034C27.7216 13.5057 27.9489 13.196 28.233 12.9744C28.5199 12.75 28.8324 12.5937 29.1705 12.5057C29.5114 12.4148 29.8466 12.3693 30.1761 12.3693C30.3864 12.3693 30.6278 12.3949 30.9006 12.446C31.1761 12.4943 31.4418 12.5952 31.6974 12.7486C31.956 12.902 32.1705 13.1335 32.3409 13.4432C32.5114 13.7528 32.5966 14.1676 32.5966 14.6875V19H31.5909V18.1136H31.5398C31.4716 18.2557 31.358 18.4077 31.1989 18.5696C31.0398 18.7315 30.8281 18.8693 30.5639 18.983C30.2997 19.0966 29.9773 19.1534 29.5966 19.1534ZM29.75 18.25C30.1477 18.25 30.483 18.1719 30.7557 18.0156C31.0313 17.8594 31.2386 17.6577 31.3778 17.4105C31.5199 17.1634 31.5909 16.9034 31.5909 16.6307V15.7102C31.5483 15.7614 31.4545 15.8082 31.3097 15.8509C31.1676 15.8906 31.0028 15.9261 30.8153 15.9574C30.6307 15.9858 30.4503 16.0114 30.2741 16.0341C30.1009 16.054 29.9602 16.071 29.8523 16.0852C29.5909 16.1193 29.3466 16.1747 29.1193 16.2514C28.8949 16.3253 28.7131 16.4375 28.5739 16.5881C28.4375 16.7358 28.3693 16.9375 28.3693 17.1932C28.3693 17.5426 28.4986 17.8068 28.7571 17.9858C29.0185 18.1619 29.3494 18.25 29.75 18.25ZM35.4379 15.0625V19H34.4322V12.4545H35.4038V13.4773H35.489C35.6424 13.1449 35.8754 12.8778 36.1879 12.6761C36.5004 12.4716 36.9038 12.3693 37.3981 12.3693C37.8413 12.3693 38.229 12.4602 38.5614 12.642C38.8938 12.821 39.1523 13.0938 39.337 13.4602C39.5217 13.8239 39.614 14.2841 39.614 14.8409V19H38.6083V14.9091C38.6083 14.3949 38.4748 13.9943 38.2077 13.7074C37.9407 13.4176 37.5742 13.2727 37.1083 13.2727C36.7873 13.2727 36.5004 13.3423 36.2475 13.4815C35.9975 13.6207 35.8001 13.8239 35.6552 14.0909C35.5103 14.358 35.4379 14.6818 35.4379 15.0625ZM44.0938 21.5909C43.608 21.5909 43.1903 21.5284 42.8409 21.4034C42.4915 21.2812 42.2003 21.1193 41.9673 20.9176C41.7372 20.7188 41.554 20.5057 41.4176 20.2784L42.2188 19.7159C42.3097 19.8352 42.4247 19.9716 42.5639 20.125C42.7031 20.2812 42.8935 20.4162 43.1349 20.5298C43.3793 20.6463 43.6989 20.7045 44.0938 20.7045C44.6222 20.7045 45.0582 20.5767 45.402 20.321C45.7457 20.0653 45.9176 19.6648 45.9176 19.1193V17.7898H45.8324C45.7585 17.9091 45.6534 18.0568 45.517 18.233C45.3835 18.4062 45.1903 18.5611 44.9375 18.6974C44.6875 18.831 44.3494 18.8977 43.9233 18.8977C43.3949 18.8977 42.9205 18.7727 42.5 18.5227C42.0824 18.2727 41.7514 17.9091 41.5071 17.4318C41.2656 16.9545 41.1449 16.375 41.1449 15.6932C41.1449 15.0227 41.2628 14.4389 41.4986 13.9418C41.7344 13.4418 42.0625 13.0554 42.483 12.7827C42.9034 12.5071 43.3892 12.3693 43.9403 12.3693C44.3665 12.3693 44.7045 12.4403 44.9545 12.5824C45.2074 12.7216 45.4006 12.8807 45.5341 13.0597C45.6705 13.2358 45.7756 13.3807 45.8494 13.4943H45.9517V12.4545H46.9233V19.1875C46.9233 19.75 46.7955 20.2074 46.5398 20.5597C46.2869 20.9148 45.946 21.1747 45.517 21.3395C45.0909 21.5071 44.6165 21.5909 44.0938 21.5909ZM44.0597 17.9943C44.4631 17.9943 44.804 17.902 45.0824 17.7173C45.3608 17.5327 45.5724 17.267 45.7173 16.9205C45.8622 16.5739 45.9347 16.1591 45.9347 15.6761C45.9347 15.2045 45.8636 14.7884 45.7216 14.4276C45.5795 14.0668 45.3693 13.7841 45.0909 13.5795C44.8125 13.375 44.4688 13.2727 44.0597 13.2727C43.6335 13.2727 43.2784 13.3807 42.9943 13.5966C42.7131 13.8125 42.5014 14.1023 42.3594 14.4659C42.2202 14.8295 42.1506 15.233 42.1506 15.6761C42.1506 16.1307 42.2216 16.5327 42.3636 16.8821C42.5085 17.2287 42.7216 17.5014 43.0028 17.7003C43.2869 17.8963 43.6392 17.9943 44.0597 17.9943ZM53.4006 13.9205L52.4972 14.1761C52.4403 14.0256 52.3565 13.8793 52.2457 13.7372C52.1378 13.5923 51.9901 13.473 51.8026 13.3793C51.6151 13.2855 51.375 13.2386 51.0824 13.2386C50.6818 13.2386 50.348 13.331 50.081 13.5156C49.8168 13.6974 49.6847 13.929 49.6847 14.2102C49.6847 14.4602 49.7756 14.6577 49.9574 14.8026C50.1392 14.9474 50.4233 15.0682 50.8097 15.1648L51.7812 15.4034C52.3665 15.5455 52.8026 15.7628 53.0895 16.0554C53.3764 16.3452 53.5199 16.7187 53.5199 17.1761C53.5199 17.5511 53.4119 17.8864 53.196 18.1818C52.983 18.4773 52.6847 18.7102 52.3011 18.8807C51.9176 19.0511 51.4716 19.1364 50.9631 19.1364C50.2955 19.1364 49.7429 18.9915 49.3054 18.7017C48.8679 18.4119 48.5909 17.9886 48.4744 17.4318L49.429 17.1932C49.5199 17.5455 49.6918 17.8097 49.9446 17.9858C50.2003 18.1619 50.5341 18.25 50.946 18.25C51.4148 18.25 51.7869 18.1506 52.0625 17.9517C52.3409 17.75 52.4801 17.5085 52.4801 17.2273C52.4801 17 52.4006 16.8097 52.2415 16.6562C52.0824 16.5 51.8381 16.3835 51.5085 16.3068L50.4176 16.0511C49.8182 15.9091 49.3778 15.6889 49.0966 15.3906C48.8182 15.0895 48.679 14.7131 48.679 14.2614C48.679 13.892 48.7827 13.5653 48.9901 13.2812C49.2003 12.9972 49.4858 12.7741 49.8466 12.6122C50.2102 12.4503 50.6222 12.3693 51.0824 12.3693C51.7301 12.3693 52.2386 12.5114 52.608 12.7955C52.9801 13.0795 53.2443 13.4545 53.4006 13.9205Z" fill="black"/>
<path d="M88 23H70V5H88L79 14L88 23Z" fill="#7F52FF"/>
<defs>
<filter id="filter0_d_27_2" x="0" y="0" width="153" height="36" filterUnits="userSpaceOnUse" color-interpolation-filters="sRGB">
<feFlood flood-opacity="0" result="BackgroundImageFix"/>
<feColorMatrix in="SourceAlpha" type="matrix" values="0 0 0 0 0 0 0 0 0 0 0 0 0 0 0 0 0 0 127 0" result="hardAlpha"/>
<feOffset dy="4"/>
<feGaussianBlur stdDeviation="2"/>
<feComposite in2="hardAlpha" operator="out"/>
<feColorMatrix type="matrix" values="0 0 0 0 0 0 0 0 0 0 0 0 0 0 0 0 0 0 0.25 0"/>
<feBlend mode="normal" in2="BackgroundImageFix" result="effect1_dropShadow_27_2"/>
<feBlend mode="normal" in="SourceGraphic" in2="effect1_dropShadow_27_2" result="shape"/>
</filter>
</defs>
</svg>
