<svg width="153" height="36" viewBox="0 0 153 36" fill="none" xmlns="http://www.w3.org/2000/svg">
<g filter="url(#filter0_d_38_9)">
<rect x="4" width="145" height="28" rx="14" fill="#FCF0F0"/>
</g>
<path d="M100.977 10.2727V19H99.9545L95.1989 12.1477H95.1136V19H94.0568V10.2727H95.0795L99.8523 17.142H99.9375V10.2727H100.977ZM105.615 19.1364C105.024 19.1364 104.505 18.9957 104.059 18.7145C103.616 18.4332 103.27 18.0398 103.02 17.5341C102.772 17.0284 102.649 16.4375 102.649 15.7614C102.649 15.0795 102.772 14.4844 103.02 13.9759C103.27 13.4673 103.616 13.0724 104.059 12.7912C104.505 12.5099 105.024 12.3693 105.615 12.3693C106.206 12.3693 106.723 12.5099 107.166 12.7912C107.612 13.0724 107.958 13.4673 108.206 13.9759C108.456 14.4844 108.581 15.0795 108.581 15.7614C108.581 16.4375 108.456 17.0284 108.206 17.5341C107.958 18.0398 107.612 18.4332 107.166 18.7145C106.723 18.9957 106.206 19.1364 105.615 19.1364ZM105.615 18.233C106.064 18.233 106.433 18.1179 106.723 17.8878C107.012 17.6577 107.227 17.3551 107.366 16.9801C107.505 16.6051 107.575 16.1989 107.575 15.7614C107.575 15.3239 107.505 14.9162 107.366 14.5384C107.227 14.1605 107.012 13.8551 106.723 13.6222C106.433 13.3892 106.064 13.2727 105.615 13.2727C105.166 13.2727 104.797 13.3892 104.507 13.6222C104.217 13.8551 104.002 14.1605 103.863 14.5384C103.724 14.9162 103.654 15.3239 103.654 15.7614C103.654 16.1989 103.724 16.6051 103.863 16.9801C104.002 17.3551 104.217 17.6577 104.507 17.8878C104.797 18.1179 105.166 18.233 105.615 18.233ZM112.962 12.4545V13.3068H109.57V12.4545H112.962ZM110.559 10.8864H111.565V17.125C111.565 17.4091 111.606 17.6222 111.688 17.7642C111.773 17.9034 111.881 17.9972 112.012 18.0455C112.146 18.0909 112.286 18.1136 112.434 18.1136C112.545 18.1136 112.636 18.108 112.707 18.0966C112.778 18.0824 112.835 18.071 112.877 18.0625L113.082 18.9659C113.013 18.9915 112.918 19.017 112.796 19.0426C112.674 19.071 112.519 19.0852 112.332 19.0852C112.048 19.0852 111.769 19.0241 111.496 18.902C111.227 18.7798 111.002 18.5938 110.823 18.3438C110.647 18.0938 110.559 17.7784 110.559 17.3977V10.8864ZM114.475 19V12.4545H115.481V19H114.475ZM114.987 11.3636C114.79 11.3636 114.621 11.2969 114.479 11.1634C114.34 11.0298 114.271 10.8693 114.271 10.6818C114.271 10.4943 114.34 10.3338 114.479 10.2003C114.621 10.0668 114.79 10 114.987 10C115.183 10 115.35 10.0668 115.489 10.2003C115.631 10.3338 115.702 10.4943 115.702 10.6818C115.702 10.8693 115.631 11.0298 115.489 11.1634C115.35 11.2969 115.183 11.3636 114.987 11.3636ZM119.982 19.1364C119.391 19.1364 118.873 18.9957 118.426 18.7145C117.983 18.4332 117.637 18.0398 117.387 17.5341C117.14 17.0284 117.016 16.4375 117.016 15.7614C117.016 15.0795 117.14 14.4844 117.387 13.9759C117.637 13.4673 117.983 13.0724 118.426 12.7912C118.873 12.5099 119.391 12.3693 119.982 12.3693C120.573 12.3693 121.09 12.5099 121.533 12.7912C121.979 13.0724 122.326 13.4673 122.573 13.9759C122.823 14.4844 122.948 15.0795 122.948 15.7614C122.948 16.4375 122.823 17.0284 122.573 17.5341C122.326 18.0398 121.979 18.4332 121.533 18.7145C121.09 18.9957 120.573 19.1364 119.982 19.1364ZM119.982 18.233C120.431 18.233 120.8 18.1179 121.09 17.8878C121.38 17.6577 121.594 17.3551 121.733 16.9801C121.873 16.6051 121.942 16.1989 121.942 15.7614C121.942 15.3239 121.873 14.9162 121.733 14.5384C121.594 14.1605 121.38 13.8551 121.09 13.6222C120.8 13.3892 120.431 13.2727 119.982 13.2727C119.533 13.2727 119.164 13.3892 118.874 13.6222C118.584 13.8551 118.37 14.1605 118.23 14.5384C118.091 14.9162 118.022 15.3239 118.022 15.7614C118.022 16.1989 118.091 16.6051 118.23 16.9801C118.37 17.3551 118.584 17.6577 118.874 17.8878C119.164 18.1179 119.533 18.233 119.982 18.233ZM125.489 15.0625V19H124.483V12.4545H125.455V13.4773H125.54C125.693 13.1449 125.926 12.8778 126.239 12.6761C126.551 12.4716 126.955 12.3693 127.449 12.3693C127.892 12.3693 128.28 12.4602 128.612 12.642C128.945 12.821 129.203 13.0938 129.388 13.4602C129.572 13.8239 129.665 14.2841 129.665 14.8409V19H128.659V14.9091C128.659 14.3949 128.526 13.9943 128.259 13.7074C127.991 13.4176 127.625 13.2727 127.159 13.2727C126.838 13.2727 126.551 13.3423 126.298 13.4815C126.048 13.6207 125.851 13.8239 125.706 14.0909C125.561 14.358 125.489 14.6818 125.489 15.0625Z" fill="#0500FF"/>
<path d="M93 21.3864H130.585V22.2045H93V21.3864Z" fill="#0500FF"/>
<path d="M4 14C4 6.26801 10.268 0 18 0H64V28H18C10.268 28 4 21.732 4 14V14Z" fill="#DBA8A8"/>
<path d="M37.0795 13H36.0227C35.9602 12.696 35.8509 12.429 35.6946 12.1989C35.5412 11.9688 35.3537 11.7756 35.1321 11.6193C34.9134 11.4602 34.6705 11.3409 34.4034 11.2614C34.1364 11.1818 33.858 11.142 33.5682 11.142C33.0398 11.142 32.5611 11.2756 32.1321 11.5426C31.706 11.8097 31.3665 12.2031 31.1136 12.723C30.8636 13.2429 30.7386 13.8807 30.7386 14.6364C30.7386 15.392 30.8636 16.0298 31.1136 16.5497C31.3665 17.0696 31.706 17.4631 32.1321 17.7301C32.5611 17.9972 33.0398 18.1307 33.5682 18.1307C33.858 18.1307 34.1364 18.0909 34.4034 18.0114C34.6705 17.9318 34.9134 17.8139 35.1321 17.6577C35.3537 17.4986 35.5412 17.304 35.6946 17.0739C35.8509 16.8409 35.9602 16.5739 36.0227 16.2727H37.0795C37 16.7187 36.8551 17.1179 36.6449 17.4702C36.4347 17.8224 36.1733 18.1222 35.8608 18.3693C35.5483 18.6136 35.1974 18.7997 34.8082 18.9276C34.4219 19.0554 34.0085 19.1193 33.5682 19.1193C32.8239 19.1193 32.1619 18.9375 31.5824 18.5739C31.0028 18.2102 30.5469 17.6932 30.2145 17.0227C29.8821 16.3523 29.7159 15.5568 29.7159 14.6364C29.7159 13.7159 29.8821 12.9205 30.2145 12.25C30.5469 11.5795 31.0028 11.0625 31.5824 10.6989C32.1619 10.3352 32.8239 10.1534 33.5682 10.1534C34.0085 10.1534 34.4219 10.2173 34.8082 10.3452C35.1974 10.473 35.5483 10.6605 35.8608 10.9077C36.1733 11.152 36.4347 11.4503 36.6449 11.8026C36.8551 12.152 37 12.5511 37.0795 13ZM38.31 11.2102V10.2727H44.8555V11.2102H42.1112V19H41.0543V11.2102H38.31Z" fill="black"/>
<path d="M73.9775 8.15581C74.537 8.61031 74.747 8.57581 75.7985 8.50531L85.7098 7.91056C85.9198 7.91056 85.745 7.70056 85.6753 7.66606L84.0283 6.47581C83.7133 6.23131 83.2925 5.95081 82.487 6.02056L72.8908 6.72106C72.5413 6.75556 72.4707 6.93106 72.6103 7.07056L73.9775 8.15581ZM74.5723 10.4658V20.8938C74.5723 21.4541 74.852 21.6641 75.4828 21.6288L86.375 20.9988C87.0058 20.9643 87.0763 20.5788 87.0763 20.1236V9.76531C87.0763 9.31081 86.9015 9.06556 86.5153 9.10006L75.1325 9.76531C74.7125 9.80056 74.5723 10.0113 74.5723 10.4658ZM85.325 11.0246C85.3948 11.3396 85.325 11.6546 85.01 11.6906L84.485 11.7956V19.4936C84.029 19.7388 83.609 19.8791 83.2588 19.8791C82.6978 19.8791 82.5575 19.7036 82.1375 19.1793L78.7048 13.7898V19.0038L79.7908 19.2498C79.7908 19.2498 79.7908 19.8798 78.9148 19.8798L76.4983 20.0193C76.4285 19.8798 76.4983 19.5296 76.7435 19.4598L77.3735 19.2851V12.3903L76.4998 12.3198C76.4293 12.0048 76.6048 11.5503 77.0945 11.5151L79.6865 11.3403L83.2595 16.7996V11.9696L82.3483 11.8653C82.2785 11.4798 82.5583 11.2001 82.9085 11.1656L85.325 11.0246ZM72.0853 5.77606L82.0678 5.04106C83.2933 4.93606 83.609 5.00581 84.3793 5.56606L87.566 7.80556C88.091 8.19031 88.2665 8.29531 88.2665 8.71531V20.9988C88.2665 21.7683 87.9868 22.2243 87.0065 22.2933L75.413 22.9938C74.678 23.0291 74.327 22.9241 73.9415 22.4336L71.5948 19.3886C71.1747 18.8283 71 18.4091 71 17.9186V7.00006C71 6.37081 71.2805 5.84506 72.0853 5.77606Z" fill="black"/>
<defs>
<filter id="filter0_d_38_9" x="0" y="0" width="153" height="36" filterUnits="userSpaceOnUse" color-interpolation-filters="sRGB">
<feFlood flood-opacity="0" result="BackgroundImageFix"/>
<feColorMatrix in="SourceAlpha" type="matrix" values="0 0 0 0 0 0 0 0 0 0 0 0 0 0 0 0 0 0 127 0" result="hardAlpha"/>
<feOffset dy="4"/>
<feGaussianBlur stdDeviation="2"/>
<feComposite in2="hardAlpha" operator="out"/>
<feColorMatrix type="matrix" values="0 0 0 0 0 0 0 0 0 0 0 0 0 0 0 0 0 0 0.25 0"/>
<feBlend mode="normal" in2="BackgroundImageFix" result="effect1_dropShadow_38_9"/>
<feBlend mode="normal" in="SourceGraphic" in2="effect1_dropShadow_38_9" result="shape"/>
</filter>
</defs>
</svg>
