<svg width="153" height="36" viewBox="0 0 153 36" fill="none" xmlns="http://www.w3.org/2000/svg">
<g filter="url(#filter0_d_19_8)">
<rect x="4" width="145" height="28" rx="14" fill="#FCF0F0"/>
<path d="M84.523 17.1023C83.9719 17.1023 83.5237 16.6537 83.5237 16.1026C83.5237 15.5515 83.972 15.1033 84.523 15.1033C85.0741 15.1033 85.5223 15.5516 85.5223 16.1026C85.5224 16.6537 85.0741 17.1023 84.523 17.1023ZM73.477 17.1023C72.9259 17.1023 72.4777 16.6537 72.4777 16.1026C72.4777 15.5515 72.9259 15.1033 73.477 15.1033C74.0281 15.1033 74.4763 15.5516 74.4763 16.1026C74.4763 16.6537 74.028 17.1023 73.477 17.1023ZM84.8815 11.0823L86.8788 7.62309C86.9338 7.52763 86.9486 7.41425 86.9201 7.30785C86.8916 7.20144 86.822 7.11068 86.7267 7.05549C86.6312 7.00053 86.5179 6.98567 86.4115 7.01418C86.305 7.0427 86.2143 7.11226 86.1591 7.20759L84.1368 10.7106C82.5902 10.0048 80.8533 9.61169 79 9.61169C77.1467 9.61169 75.4098 10.0048 73.8633 10.7106L71.841 7.20759C71.7858 7.11225 71.695 7.04269 71.5886 7.01418C71.4822 6.98566 71.3688 7.00052 71.2733 7.05549C71.1779 7.11063 71.1083 7.20138 71.0798 7.30781C71.0513 7.41424 71.0662 7.52764 71.1212 7.62309L73.1185 11.0823C69.6889 12.9476 67.3432 16.4198 67 20.5219H91C90.6565 16.4198 88.3108 12.9476 84.8815 11.0823Z" fill="#3AD176"/>
<path d="M96.8466 18.1534C96.4318 18.1534 96.0554 18.0753 95.7173 17.919C95.3793 17.7599 95.1108 17.5312 94.9119 17.233C94.7131 16.9318 94.6136 16.5682 94.6136 16.142C94.6136 15.767 94.6875 15.4631 94.8352 15.2301C94.983 14.9943 95.1804 14.8097 95.4276 14.6761C95.6747 14.5426 95.9474 14.4432 96.2457 14.3778C96.5469 14.3097 96.8494 14.2557 97.1534 14.2159C97.5511 14.1648 97.8736 14.1264 98.1207 14.1009C98.3707 14.0724 98.5526 14.0256 98.6662 13.9602C98.7827 13.8949 98.8409 13.7812 98.8409 13.6193V13.5852C98.8409 13.1648 98.7259 12.8381 98.4957 12.6051C98.2685 12.3722 97.9233 12.2557 97.4602 12.2557C96.9801 12.2557 96.6037 12.3608 96.331 12.571C96.0582 12.7812 95.8665 13.0057 95.7557 13.2443L94.8011 12.9034C94.9716 12.5057 95.1989 12.196 95.483 11.9744C95.7699 11.75 96.0824 11.5937 96.4205 11.5057C96.7614 11.4148 97.0966 11.3693 97.4261 11.3693C97.6364 11.3693 97.8778 11.3949 98.1506 11.446C98.4261 11.4943 98.6918 11.5952 98.9474 11.7486C99.206 11.902 99.4205 12.1335 99.5909 12.4432C99.7614 12.7528 99.8466 13.1676 99.8466 13.6875V18H98.8409V17.1136H98.7898C98.7216 17.2557 98.608 17.4077 98.4489 17.5696C98.2898 17.7315 98.0781 17.8693 97.8139 17.983C97.5497 18.0966 97.2273 18.1534 96.8466 18.1534ZM97 17.25C97.3977 17.25 97.733 17.1719 98.0057 17.0156C98.2813 16.8594 98.4886 16.6577 98.6278 16.4105C98.7699 16.1634 98.8409 15.9034 98.8409 15.6307V14.7102C98.7983 14.7614 98.7045 14.8082 98.5597 14.8509C98.4176 14.8906 98.2528 14.9261 98.0653 14.9574C97.8807 14.9858 97.7003 15.0114 97.5241 15.0341C97.3509 15.054 97.2102 15.071 97.1023 15.0852C96.8409 15.1193 96.5966 15.1747 96.3693 15.2514C96.1449 15.3253 95.9631 15.4375 95.8239 15.5881C95.6875 15.7358 95.6193 15.9375 95.6193 16.1932C95.6193 16.5426 95.7486 16.8068 96.0071 16.9858C96.2685 17.1619 96.5994 17.25 97 17.25ZM102.688 14.0625V18H101.682V11.4545H102.654V12.4773H102.739C102.892 12.1449 103.125 11.8778 103.438 11.6761C103.75 11.4716 104.154 11.3693 104.648 11.3693C105.091 11.3693 105.479 11.4602 105.811 11.642C106.144 11.821 106.402 12.0938 106.587 12.4602C106.772 12.8239 106.864 13.2841 106.864 13.8409V18H105.858V13.9091C105.858 13.3949 105.725 12.9943 105.458 12.7074C105.191 12.4176 104.824 12.2727 104.358 12.2727C104.037 12.2727 103.75 12.3423 103.498 12.4815C103.248 12.6207 103.05 12.8239 102.905 13.0909C102.76 13.358 102.688 13.6818 102.688 14.0625ZM111.173 18.1364C110.628 18.1364 110.146 17.9986 109.729 17.723C109.311 17.4446 108.984 17.0526 108.749 16.5469C108.513 16.0384 108.395 15.4375 108.395 14.7443C108.395 14.0568 108.513 13.4602 108.749 12.9545C108.984 12.4489 109.313 12.0582 109.733 11.7827C110.153 11.5071 110.639 11.3693 111.19 11.3693C111.616 11.3693 111.953 11.4403 112.2 11.5824C112.45 11.7216 112.641 11.8807 112.771 12.0597C112.905 12.2358 113.009 12.3807 113.082 12.4943H113.168V9.27273H114.173V18H113.202V16.9943H113.082C113.009 17.1136 112.903 17.2642 112.767 17.446C112.631 17.625 112.436 17.7855 112.183 17.9276C111.93 18.0668 111.594 18.1364 111.173 18.1364ZM111.31 17.233C111.713 17.233 112.054 17.1278 112.332 16.9176C112.611 16.7045 112.822 16.4105 112.967 16.0355C113.112 15.6577 113.185 15.2216 113.185 14.7273C113.185 14.2386 113.114 13.8111 112.972 13.4446C112.83 13.0753 112.619 12.7884 112.341 12.5838C112.063 12.3764 111.719 12.2727 111.31 12.2727C110.884 12.2727 110.528 12.3821 110.244 12.6009C109.963 12.8168 109.751 13.1108 109.609 13.483C109.47 13.8523 109.401 14.267 109.401 14.7273C109.401 15.1932 109.472 15.6165 109.614 15.9972C109.759 16.375 109.972 16.6761 110.253 16.9006C110.537 17.1222 110.889 17.233 111.31 17.233ZM116.155 18V11.4545H117.126V12.4432H117.195C117.314 12.1193 117.53 11.8565 117.842 11.6548C118.155 11.4531 118.507 11.3523 118.899 11.3523C118.973 11.3523 119.065 11.3537 119.176 11.3565C119.287 11.3594 119.371 11.3636 119.428 11.3693V12.392C119.393 12.3835 119.315 12.3707 119.193 12.3537C119.074 12.3338 118.947 12.3239 118.814 12.3239C118.496 12.3239 118.212 12.3906 117.962 12.5241C117.714 12.6548 117.518 12.8366 117.374 13.0696C117.232 13.2997 117.161 13.5625 117.161 13.858V18H116.155ZM123.08 18.1364C122.489 18.1364 121.97 17.9957 121.524 17.7145C121.081 17.4332 120.734 17.0398 120.484 16.5341C120.237 16.0284 120.114 15.4375 120.114 14.7614C120.114 14.0795 120.237 13.4844 120.484 12.9759C120.734 12.4673 121.081 12.0724 121.524 11.7912C121.97 11.5099 122.489 11.3693 123.08 11.3693C123.67 11.3693 124.188 11.5099 124.631 11.7912C125.077 12.0724 125.423 12.4673 125.67 12.9759C125.92 13.4844 126.045 14.0795 126.045 14.7614C126.045 15.4375 125.92 16.0284 125.67 16.5341C125.423 17.0398 125.077 17.4332 124.631 17.7145C124.188 17.9957 123.67 18.1364 123.08 18.1364ZM123.08 17.233C123.528 17.233 123.898 17.1179 124.188 16.8878C124.477 16.6577 124.692 16.3551 124.831 15.9801C124.97 15.6051 125.04 15.1989 125.04 14.7614C125.04 14.3239 124.97 13.9162 124.831 13.5384C124.692 13.1605 124.477 12.8551 124.188 12.6222C123.898 12.3892 123.528 12.2727 123.08 12.2727C122.631 12.2727 122.261 12.3892 121.972 12.6222C121.682 12.8551 121.467 13.1605 121.328 13.5384C121.189 13.9162 121.119 14.3239 121.119 14.7614C121.119 15.1989 121.189 15.6051 121.328 15.9801C121.467 16.3551 121.682 16.6577 121.972 16.8878C122.261 17.1179 122.631 17.233 123.08 17.233ZM127.581 18V11.4545H128.586V18H127.581ZM128.092 10.3636C127.896 10.3636 127.727 10.2969 127.585 10.1634C127.446 10.0298 127.376 9.86932 127.376 9.68182C127.376 9.49432 127.446 9.33381 127.585 9.20028C127.727 9.06676 127.896 9 128.092 9C128.288 9 128.456 9.06676 128.595 9.20028C128.737 9.33381 128.808 9.49432 128.808 9.68182C128.808 9.86932 128.737 10.0298 128.595 10.1634C128.456 10.2969 128.288 10.3636 128.092 10.3636ZM132.9 18.1364C132.354 18.1364 131.873 17.9986 131.455 17.723C131.038 17.4446 130.711 17.0526 130.475 16.5469C130.239 16.0384 130.121 15.4375 130.121 14.7443C130.121 14.0568 130.239 13.4602 130.475 12.9545C130.711 12.4489 131.039 12.0582 131.46 11.7827C131.88 11.5071 132.366 11.3693 132.917 11.3693C133.343 11.3693 133.68 11.4403 133.927 11.5824C134.177 11.7216 134.367 11.8807 134.498 12.0597C134.631 12.2358 134.735 12.3807 134.809 12.4943H134.894V9.27273H135.9V18H134.928V16.9943H134.809C134.735 17.1136 134.63 17.2642 134.494 17.446C134.357 17.625 134.163 17.7855 133.91 17.9276C133.657 18.0668 133.32 18.1364 132.9 18.1364ZM133.036 17.233C133.44 17.233 133.781 17.1278 134.059 16.9176C134.337 16.7045 134.549 16.4105 134.694 16.0355C134.839 15.6577 134.911 15.2216 134.911 14.7273C134.911 14.2386 134.84 13.8111 134.698 13.4446C134.556 13.0753 134.346 12.7884 134.067 12.5838C133.789 12.3764 133.445 12.2727 133.036 12.2727C132.61 12.2727 132.255 12.3821 131.971 12.6009C131.69 12.8168 131.478 13.1108 131.336 13.483C131.197 13.8523 131.127 14.267 131.127 14.7273C131.127 15.1932 131.198 15.6165 131.34 15.9972C131.485 16.375 131.698 16.6761 131.979 16.9006C132.263 17.1222 132.616 17.233 133.036 17.233Z" fill="black"/>
<path d="M4 14C4 6.26801 10.268 0 18 0H64V28H18C10.268 28 4 21.732 4 14V14Z" fill="#A78787"/>
<path d="M14.0568 19V10.2727H17.0057C17.6903 10.2727 18.25 10.3963 18.6847 10.6435C19.1222 10.8878 19.446 11.2188 19.6562 11.6364C19.8665 12.054 19.9716 12.5199 19.9716 13.0341C19.9716 13.5483 19.8665 14.0156 19.6562 14.4361C19.4489 14.8565 19.1278 15.1918 18.6932 15.4418C18.2585 15.6889 17.7017 15.8125 17.0227 15.8125H14.9091V14.875H16.9886C17.4574 14.875 17.8338 14.794 18.1179 14.6321C18.402 14.4702 18.608 14.2514 18.7358 13.9759C18.8665 13.6974 18.9318 13.3835 18.9318 13.0341C18.9318 12.6847 18.8665 12.3722 18.7358 12.0966C18.608 11.821 18.4006 11.6051 18.1136 11.4489C17.8267 11.2898 17.446 11.2102 16.9716 11.2102H15.1136V19H14.0568ZM22.5433 10.2727V19H21.5376V10.2727H22.5433ZM26.3114 19.1534C25.8967 19.1534 25.5202 19.0753 25.1822 18.919C24.8441 18.7599 24.5756 18.5312 24.3768 18.233C24.1779 17.9318 24.0785 17.5682 24.0785 17.142C24.0785 16.767 24.1523 16.4631 24.3001 16.2301C24.4478 15.9943 24.6452 15.8097 24.8924 15.6761C25.1396 15.5426 25.4123 15.4432 25.7106 15.3778C26.0117 15.3097 26.3143 15.2557 26.6183 15.2159C27.016 15.1648 27.3384 15.1264 27.5856 15.1009C27.8356 15.0724 28.0174 15.0256 28.131 14.9602C28.2475 14.8949 28.3058 14.7812 28.3058 14.6193V14.5852C28.3058 14.1648 28.1907 13.8381 27.9606 13.6051C27.7333 13.3722 27.3881 13.2557 26.9251 13.2557C26.445 13.2557 26.0685 13.3608 25.7958 13.571C25.5231 13.7812 25.3313 14.0057 25.2205 14.2443L24.266 13.9034C24.4364 13.5057 24.6637 13.196 24.9478 12.9744C25.2347 12.75 25.5472 12.5937 25.8853 12.5057C26.2262 12.4148 26.5614 12.3693 26.891 12.3693C27.1012 12.3693 27.3427 12.3949 27.6154 12.446C27.891 12.4943 28.1566 12.5952 28.4123 12.7486C28.6708 12.902 28.8853 13.1335 29.0558 13.4432C29.2262 13.7528 29.3114 14.1676 29.3114 14.6875V19H28.3058V18.1136H28.2546C28.1864 18.2557 28.0728 18.4077 27.9137 18.5696C27.7546 18.7315 27.543 18.8693 27.2788 18.983C27.0146 19.0966 26.6921 19.1534 26.3114 19.1534ZM26.4648 18.25C26.8626 18.25 27.1978 18.1719 27.4705 18.0156C27.7461 17.8594 27.9535 17.6577 28.0927 17.4105C28.2347 17.1634 28.3058 16.9034 28.3058 16.6307V15.7102C28.2631 15.7614 28.1694 15.8082 28.0245 15.8509C27.8825 15.8906 27.7177 15.9261 27.5302 15.9574C27.3455 15.9858 27.1651 16.0114 26.989 16.0341C26.8157 16.054 26.6751 16.071 26.5671 16.0852C26.3058 16.1193 26.0614 16.1747 25.8342 16.2514C25.6097 16.3253 25.4279 16.4375 25.2887 16.5881C25.1523 16.7358 25.0842 16.9375 25.0842 17.1932C25.0842 17.5426 25.2134 17.8068 25.4719 17.9858C25.7333 18.1619 26.0643 18.25 26.4648 18.25ZM33.9936 12.4545V13.3068H30.6016V12.4545H33.9936ZM31.5902 10.8864H32.5959V17.125C32.5959 17.4091 32.6371 17.6222 32.7195 17.7642C32.8047 17.9034 32.9126 17.9972 33.0433 18.0455C33.1768 18.0909 33.3175 18.1136 33.4652 18.1136C33.576 18.1136 33.6669 18.108 33.7379 18.0966C33.8089 18.0824 33.8658 18.071 33.9084 18.0625L34.1129 18.9659C34.0447 18.9915 33.9496 19.017 33.8274 19.0426C33.7053 19.071 33.5504 19.0852 33.3629 19.0852C33.0788 19.0852 32.8004 19.0241 32.5277 18.902C32.2578 18.7798 32.0334 18.5938 31.8544 18.3438C31.6783 18.0938 31.5902 17.7784 31.5902 17.3977V10.8864ZM38.4212 12.4545V13.3068H34.8928V12.4545H38.4212ZM35.9496 19V11.5511C35.9496 11.1761 36.0376 10.8636 36.2138 10.6136C36.3899 10.3636 36.6186 10.1761 36.8999 10.0511C37.1811 9.92614 37.478 9.86364 37.7905 9.86364C38.0376 9.86364 38.2393 9.88352 38.3956 9.9233C38.5518 9.96307 38.6683 10 38.745 10.0341L38.4553 10.9034C38.4041 10.8864 38.3331 10.8651 38.2422 10.8395C38.1541 10.8139 38.0376 10.8011 37.8928 10.8011C37.5604 10.8011 37.3203 10.8849 37.1726 11.0526C37.0277 11.2202 36.9553 11.4659 36.9553 11.7898V19H35.9496ZM42.2202 19.1364C41.6293 19.1364 41.1108 18.9957 40.6648 18.7145C40.2216 18.4332 39.875 18.0398 39.625 17.5341C39.3778 17.0284 39.2543 16.4375 39.2543 15.7614C39.2543 15.0795 39.3778 14.4844 39.625 13.9759C39.875 13.4673 40.2216 13.0724 40.6648 12.7912C41.1108 12.5099 41.6293 12.3693 42.2202 12.3693C42.8111 12.3693 43.3281 12.5099 43.7713 12.7912C44.2173 13.0724 44.5639 13.4673 44.8111 13.9759C45.0611 14.4844 45.1861 15.0795 45.1861 15.7614C45.1861 16.4375 45.0611 17.0284 44.8111 17.5341C44.5639 18.0398 44.2173 18.4332 43.7713 18.7145C43.3281 18.9957 42.8111 19.1364 42.2202 19.1364ZM42.2202 18.233C42.669 18.233 43.0384 18.1179 43.3281 17.8878C43.6179 17.6577 43.8324 17.3551 43.9716 16.9801C44.1108 16.6051 44.1804 16.1989 44.1804 15.7614C44.1804 15.3239 44.1108 14.9162 43.9716 14.5384C43.8324 14.1605 43.6179 13.8551 43.3281 13.6222C43.0384 13.3892 42.669 13.2727 42.2202 13.2727C41.7713 13.2727 41.402 13.3892 41.1122 13.6222C40.8224 13.8551 40.608 14.1605 40.4688 14.5384C40.3295 14.9162 40.2599 15.3239 40.2599 15.7614C40.2599 16.1989 40.3295 16.6051 40.4688 16.9801C40.608 17.3551 40.8224 17.6577 41.1122 17.8878C41.402 18.1179 41.7713 18.233 42.2202 18.233ZM46.7212 19V12.4545H47.6928V13.4432H47.761C47.8803 13.1193 48.0962 12.8565 48.4087 12.6548C48.7212 12.4531 49.0735 12.3523 49.4656 12.3523C49.5394 12.3523 49.6317 12.3537 49.7425 12.3565C49.8533 12.3594 49.9371 12.3636 49.994 12.3693V13.392C49.9599 13.3835 49.8817 13.3707 49.7596 13.3537C49.6403 13.3338 49.5138 13.3239 49.3803 13.3239C49.0621 13.3239 48.7781 13.3906 48.5281 13.5241C48.2809 13.6548 48.0849 13.8366 47.94 14.0696C47.7979 14.2997 47.7269 14.5625 47.7269 14.858V19H46.7212ZM51.1861 19V12.4545H52.1577V13.4773H52.2429C52.3793 13.1278 52.5994 12.8565 52.9034 12.6634C53.2074 12.4673 53.5724 12.3693 53.9986 12.3693C54.4304 12.3693 54.7898 12.4673 55.0767 12.6634C55.3665 12.8565 55.5923 13.1278 55.7543 13.4773H55.8224C55.9901 13.1392 56.2415 12.8707 56.5767 12.6719C56.9119 12.4702 57.3139 12.3693 57.7827 12.3693C58.3679 12.3693 58.8466 12.5526 59.2188 12.919C59.5909 13.2827 59.777 13.8494 59.777 14.6193V19H58.7713V14.6193C58.7713 14.1364 58.6392 13.7912 58.375 13.5838C58.1108 13.3764 57.7997 13.2727 57.4418 13.2727C56.9815 13.2727 56.625 13.4119 56.3722 13.6903C56.1193 13.9659 55.9929 14.3153 55.9929 14.7386V19H54.9702V14.517C54.9702 14.1449 54.8494 13.8452 54.608 13.6179C54.3665 13.3878 54.0554 13.2727 53.6747 13.2727C53.4134 13.2727 53.169 13.3423 52.9418 13.4815C52.7173 13.6207 52.5355 13.8139 52.3963 14.0611C52.2599 14.3054 52.1918 14.5881 52.1918 14.9091V19H51.1861Z" fill="black"/>
</g>
<defs>
<filter id="filter0_d_19_8" x="0" y="0" width="153" height="36" filterUnits="userSpaceOnUse" color-interpolation-filters="sRGB">
<feFlood flood-opacity="0" result="BackgroundImageFix"/>
<feColorMatrix in="SourceAlpha" type="matrix" values="0 0 0 0 0 0 0 0 0 0 0 0 0 0 0 0 0 0 127 0" result="hardAlpha"/>
<feOffset dy="4"/>
<feGaussianBlur stdDeviation="2"/>
<feComposite in2="hardAlpha" operator="out"/>
<feColorMatrix type="matrix" values="0 0 0 0 0 0 0 0 0 0 0 0 0 0 0 0 0 0 0.25 0"/>
<feBlend mode="normal" in2="BackgroundImageFix" result="effect1_dropShadow_19_8"/>
<feBlend mode="normal" in="SourceGraphic" in2="effect1_dropShadow_19_8" result="shape"/>
</filter>
</defs>
</svg>
